<?xml version="1.0" encoding="UTF-8" standalone="no"?>
<svg xmlns:rdf="http://www.w3.org/1999/02/22-rdf-syntax-ns#" xmlns="http://www.w3.org/2000/svg" height="100%" width="100%" version="1.1" xmlns:cc="http://creativecommons.org/ns#" xmlns:dc="http://purl.org/dc/elements/1.1/" viewBox="0 0 219.7 50.5">
 <path fill="#231f20" d="m43.5 2.90625c-1.995 0.03175-3.9795 0.48158-5.6562 1.1875-5.7646 2.58616 0.2256 7.38475 0.3437 10.5624-7.8847 2.588-16.9455 2.7141-25.0625 4.125 9.1738 0.3541 18.3499-1.1809 26.9375-3.0624l2.8125 3.4374c3.0585 4.1146-0.8117 8.6727-2.8125 12.4376 0 1.2944 0.823 1.4152 2 1.0624 3.2916-2.2356 6.6025-4.4555 10.25-5.75 1.8816 0.7055-0.0255 1.9869 0.5625 3.2813 3.4108 2.8233 7.7739-0.6912 11.6562 0.25 0.3535 0.8247 0.1222 1.7476 1.0626 2.2187 5.6455 1.411 7.1764-6.918 12-6.0937 3.7648 1.5284-1.5349 4.9395 1.4062 6.4687 4.5878 0.3528 8.9444-2.3578 13.0625-0.5937 2.8228 0.4706 6.235 0.5737 7.9995-2.25 0.354-1.0578 0.692-2.6838-0.2495-3.625-0.3532-4.3538 5.2965-2.0038 7.5315-3.0625-2.234-0.588-4.703-1.1749-6.938-0.4688-4.9425-0.1183-0.22 3.1621-1.7498 5.75-0.588 2.471-3.413 2.9557-5.5312 2.25-1.6477-0.4706-1.289-2.5975-1.4062-3.6562 1.0586-1.4127 2.465-2.4726 3.4062-3.5312-3.9998-0.3541-5.2908 3.4196-6.9375 6.125-2.1182 0.706-4.8193 2.3511-6.9375 0.4687 0.1176-0.7055-0.2516-1.6546 0.2188-2.125-0.4698-1.8824-1.0475-2.5833-2.8126-3.4063-5.1776-2.3521-6.3724 5.0614-10.8437 5.5313-1.6478-1.1761 0.8454-2.1194 0.375-3.5313l-1.1875-0.3437c-2.942 2.4701-6.8127 3.0313-10.8125 3.0313-1.5292-1.8825 0.4598-3.6176 0.8125-5.5-0.1174-0.9411-1.1688-0.8438-1.875-0.8438-3.1804 2.2365-6.47 4.1364-10 5.3125-0.3527-0.353-0.8295-0.5994-0.5938-1.1875 3.2935-4.232-0.4801-8.7039-1.6562-12.4688 2.8228-1.2944 5.8741-2.2473 8.3438-4.7187 0.3535-1.17609 1.6676-2.21228 0.8437-3.625-1.9094-2.64719-5.2375-3.70917-8.5625-3.65625zm76.656 0.125c-4.822 3.65541-10.594 8.33465-10.594 14.6876 0.351 4.8217 5.305 8.359 9.188 10.5937 1.882 3.7649-3.314 5.4159-2.844 9.0625 0.237 4.8227 5.535 4.5815 8.594 5.875 12.609 2.7636 26.388 4.0232 40.25 4.25h9.5c10.119-0.1607 20.175-0.8162 29.781-1.7812l2.469-1.0626c0.222-0.1849 0.335-0.4064 0.344-0.625v-0.0312c-0.012-0.4592-0.422-0.8903-0.813-0.9688-24.705-4.1198-51.291-3.6585-74.469-11.1874 2.59-1.4128 6.718-2.4776 7.188-6.125 1.412-0.117 2.699 0.137 3.875 0.8437-0.941 2.3531-3.988 2.5778-5.281 4.8125 0.236 0.7064 0.7 1.1636 1.406 1.2812 6.348 0.8238 12.682-1.6424 16.094-6.9374 5.059 1.6475-2.459 4.0133-0.813 6.7187h4.469c1.448-0.0759 3.991-2.3478 5.531-2.5 0.837-0.0839-0.04 1.956 1.407 2.25 2.705 0.8238 5.31-0.3325 7.781-1.1563 0.824 1.0596 2.11 2.0955 3.875 1.625 3.295-0.2357 6.487-3.2852 7.781-6.3437 4.001 0.9421-1.176 4.0086 0 6.125 2.471 0.588 5.872 0.1136 8.344-1.0625 1.646-1.7641 3.301-0.248 4.125 1.2812 1.766 0.7046 3.65-0.0029 5.062-1.0624-0.824-2.8238-2.377 0.6042-3.906-0.2188l-0.344-3.6562h-1.875c-1.996 2.588-5.656 4.1362-9.187 3.3124-0.47-2.1181 3.18-3.5466 1.062-5.3124-1.764 0.2365-3.291-1.4006-4.937-0.8126-0.237 2.5889-2.132 4.5958-4.25 6.125-0.941 0.3531-2.457 0.6904-3.281-0.25-0.117-1.6466 1.19-2.5975 2.25-3.6562-0.118-1.2953-1.764-0.6895-2-2.2188-0.941-0.7056-1.902-1.524-3.313-1.4062-2.119-0.1174-3.878 1.4149-4.937 3.0625-0.942-0.8247-2.356-0.4962-3.063 0.5625-1.528 2.8237-4.934 4.1416-7.875 3.9062 0.117-1.2935 1.295-2.2538 2-3.3124 1.529-3.2944-2.831-2.2123-4.125-3.625-1.176-0.823-2.337 0.1118-2.219 1.4062-2.825 3.9998-7.309 6.9172-12.25 6.0938 1.295-1.6468 3.635-2.0967 5.282-3.625-0.118-0.7064-0.45-1.4046-1.157-1.875-2.118-1.4128-5.076-2.8494-7.781-1.4376 0.705 4.1172-4.567 5.0721-7.156 6.7188-2.117-0.4715-4.377-1.2993-5.906-2.5938l3.906-1.4062c1.176-0.7064 2.337-2.002 2.218-3.5312-0.234-1.53-1.768-1.8819-3.062-2-3.294 0.1183-5.409 2.6924-6.938 5.2812-3.176-1.4118-7.044-4.22-7.75-7.75-2.587-7.7647 5.178-11.9908 10-16.3438l-1.656 0.00005zm-77.3122 1.28125c2.3297-0.06559 4.7099 0.60669 6.5624 2.0625 0.4705 0.58822 0.1012 1.54364 0.2188 2.25-2.3539 2.9402-5.6356 3.8788-8.8125 4.9375-1.2935-2.4705-4.2386-4.6044-3.0625-7.78125 1.4926-0.92671 3.2817-1.41774 5.0938-1.46875zm84.2502 19c0.588 1.4118-0.582 2.7245-1.875 3.3125-1.295-0.1178-1.877 1.4005-3.407 0.8125 1.059-1.8824 3.047-3.8901 5.282-4.125zm72.406 0.1875c-0.822 0.118-2.101-0.3323-2.219 0.8438 0.236 0.8227 0.457 1.0556 1.281 0.9374 0.706-0.2339 1.408-1.1927 0.938-1.7812zm-27.562 1.7188c1.02 0.0442 1.791 0.483 1.968 1.7187-1.059 3.1769-4.722 3.7718-7.781 4.125l-0.063-2.2813c0.825-0.1177 0.778 1.4688 1.719 1.4688 0.59-1.8824 1.062-3.9954 3.063-4.9375 0.382-0.0586 0.753-0.1085 1.094-0.0937zm-51.25 4.4062c1.882 0.4708 3.649 1.2936 5.531 2-1.412 0.8234-3.517 0.4768-5.281 0.5938 0.118-0.823-1.074-1.4168-0.25-2.5938zm9.093 3.0625c0.617 0.0076 1.23 0.1122 1.875 0.3437 10.94 2.7054 21.875 5.0806 33.406 6.375 12.945 1.5302 26.139 2.5864 38.844 4.4688-0.236 0.823-1.427 0.7095-2.25 1.0625-27.177 1.6467-56.836 2.4749-81.656-4.9375-0.941-0.7057-1.749-1.1913-2.219-2.25-0.823-1.765 0.365-3.4243 1.188-4.7188 3.44 2.6759 6.644-0.0668 10.187-0.3124 0.205-0.0142 0.42-0.0338 0.625-0.0313z"/>
</svg>
